<svg xmlns="http://www.w3.org/2000/svg" width="290" height="290" fill="none" viewBox="0 0 290 290"><path fill="url(#paint0_linear_30_25)" stroke="url(#paint1_linear_30_25)" stroke-width="1.933" d="M226.269 52.4044L226.274 52.4067C237.406 58.2619 245.614 66.3008 250.94 76.5218C256.285 86.7776 258.969 98.4614 258.969 111.596C258.969 124.732 256.285 136.34 250.943 146.446C245.618 156.521 237.447 164.451 226.389 170.234C221.59 172.712 219.355 178.881 222.459 183.542L257.922 236.789C261.773 242.571 257.628 250.311 250.681 250.311H196.906C193.806 250.311 190.939 248.661 189.382 245.98L79.3991 56.5686C76.0313 50.7687 80.2159 43.5 86.9227 43.5H183.394C200.888 43.5 215.161 46.4896 226.269 52.4044Z"/><path fill="url(#paint2_radial_30_25)" d="M116.722 247.228C113.004 253.687 103.684 253.687 99.9661 247.228L26.2042 119.085C22.4947 112.64 27.1462 104.596 34.5821 104.596L182.106 104.596C189.542 104.596 194.193 112.64 190.484 119.085L116.722 247.228Z"/><path fill="url(#paint3_radial_30_25)" fill-opacity=".5" d="M116.722 247.228C113.004 253.687 103.684 253.687 99.9661 247.228L26.2042 119.085C22.4947 112.64 27.1462 104.596 34.5821 104.596L182.106 104.596C189.542 104.596 194.193 112.64 190.484 119.085L116.722 247.228Z"/><path fill="url(#paint4_radial_30_25)" fill-opacity=".5" stroke="url(#paint5_linear_30_25)" stroke-linejoin="round" stroke-width="1.933" d="M100.804 246.745L27.042 118.602C23.7034 112.802 27.8898 105.562 34.5821 105.562L182.106 105.562C188.798 105.562 192.985 112.802 189.646 118.602L115.884 246.745C112.538 252.558 104.15 252.558 100.804 246.745Z"/><defs><linearGradient id="paint0_linear_30_25" x1="241.666" x2="88.933" y1="264.867" y2="7.733" gradientUnits="userSpaceOnUse"><stop stop-color="#00996C"/><stop offset="1" stop-color="#7AFFD8"/></linearGradient><linearGradient id="paint1_linear_30_25" x1="192.366" x2="233.933" y1="289.033" y2="42.533" gradientUnits="userSpaceOnUse"><stop stop-color="#fff" stop-opacity=".56"/><stop offset=".495" stop-color="#fff" stop-opacity="0"/><stop offset="1" stop-color="#fff"/></linearGradient><radialGradient id="paint2_radial_30_25" cx="0" cy="0" r="1" gradientTransform="translate(185.6 110.2) rotate(147.858) scale(129.006 128.619)" gradientUnits="userSpaceOnUse"><stop offset=".486" stop-color="#00C58A"/><stop offset="1" stop-color="#fff" stop-opacity=".21"/></radialGradient><radialGradient id="paint3_radial_30_25" cx="0" cy="0" r="1" gradientTransform="translate(108.266 160.467) rotate(90) scale(191.4 190.827)" gradientUnits="userSpaceOnUse"><stop stop-color="#fff" stop-opacity="0"/><stop offset="1" stop-color="#fff"/></radialGradient><radialGradient id="paint4_radial_30_25" cx="0" cy="0" r="1" gradientTransform="translate(108.266 181.733) rotate(-90) scale(129.533 129.145)" gradientUnits="userSpaceOnUse"><stop stop-color="#fff" stop-opacity="0"/><stop offset="1" stop-color="#fff"/></radialGradient><linearGradient id="paint5_linear_30_25" x1="105.366" x2="105.366" y1="105.367" y2="261" gradientUnits="userSpaceOnUse"><stop stop-color="#fff" stop-opacity=".6"/><stop offset=".495" stop-color="#fff" stop-opacity="0"/><stop offset="1" stop-color="#fff" stop-opacity=".38"/></linearGradient></defs></svg>